<?xml version="1.0" standalone="no"?>
<!DOCTYPE svg PUBLIC "-//W3C//DTD SVG 20010904//EN"
 "http://www.w3.org/TR/2001/REC-SVG-20010904/DTD/svg10.dtd">
<svg version="1.0" xmlns="http://www.w3.org/2000/svg"
 width="260.000000pt" height="260.000000pt" viewBox="0 0 260.000000 260.000000"
 preserveAspectRatio="xMidYMid meet">
<metadata>
Created by potrace 1.14, written by Peter Selinger 2001-2017
</metadata>
<g transform="translate(0.000000,260.000000) scale(0.100000,-0.100000)"
fill="#000000" stroke="none">
<path d="M796 1670 c-101 -26 -201 -103 -246 -190 -44 -86 -50 -229 -13 -332
21 -60 88 -138 147 -173 49 -29 152 -55 218 -55 84 0 201 33 251 72 17 13 15
18 -33 78 -28 36 -55 66 -60 68 -5 2 -22 -4 -39 -12 -65 -34 -185 -13 -233 41
-50 55 -62 154 -27 228 43 91 149 120 257 70 l52 -24 54 71 54 72 -31 23 c-76
56 -252 88 -351 63z"/>
<path d="M1277 1612 c156 -271 399 -682 404 -682 3 0 90 154 194 343 104 188
195 352 203 365 l14 22 -129 0 -128 0 -69 -162 c-38 -90 -72 -166 -76 -171 -3
-4 -43 69 -88 163 l-81 170 -136 0 -135 0 27 -48z"/>
</g>
</svg>
