<svg width="20" height="20" viewBox="0 0 20 20" fill="none" xmlns="http://www.w3.org/2000/svg">
<path d="M14.3334 0.875C15.0667 0.874959 15.7724 1.15514 16.3059 1.65823C16.8395 2.16132 17.1606 2.84927 17.2036 3.58133L17.2084 3.75V13.3333H17.9272C18.5472 13.3333 19.058 13.8048 19.1193 14.4086L19.1251 14.5313V16.2083C19.1251 16.9417 18.8449 17.6473 18.3419 18.1808C17.8388 18.7144 17.1508 19.0355 16.4187 19.0785L16.2501 19.0833H6.66675C5.93342 19.0834 5.2278 18.8032 4.69425 18.3001C4.1607 17.797 3.83956 17.1091 3.79654 16.377L3.79175 16.2083V6.625H2.11466C1.8181 6.62514 1.53203 6.51526 1.31181 6.31663C1.09158 6.11801 0.952866 5.84475 0.922498 5.54975L0.916748 5.42708V3.75C0.916707 3.01667 1.19689 2.31105 1.69998 1.7775C2.20306 1.24395 2.89102 0.922814 3.62308 0.879792L3.79175 0.875H14.3334ZM17.2084 15.25H8.58342V16.2083C8.58342 16.5438 8.52592 16.8667 8.4205 17.1667H16.2501C16.5042 17.1667 16.748 17.0657 16.9277 16.886C17.1074 16.7063 17.2084 16.4625 17.2084 16.2083V15.25ZM10.5001 9.5H8.58342C8.33916 9.50027 8.10422 9.5938 7.9266 9.76148C7.74899 9.92916 7.64211 10.1583 7.62779 10.4022C7.61348 10.646 7.69281 10.8861 7.84959 11.0734C8.00636 11.2607 8.22874 11.3811 8.47129 11.41L8.58342 11.4167H10.5001C10.7443 11.4164 10.9793 11.3229 11.1569 11.1552C11.3345 10.9875 11.4414 10.7583 11.4557 10.5145C11.47 10.2707 11.3907 10.0306 11.2339 9.84324C11.0771 9.65594 10.8548 9.53556 10.6122 9.50671L10.5001 9.5ZM12.4167 5.66667H8.58342C8.32925 5.66667 8.08549 5.76763 7.90577 5.94736C7.72605 6.12708 7.62508 6.37083 7.62508 6.625C7.62508 6.87917 7.72605 7.12292 7.90577 7.30264C8.08549 7.48237 8.32925 7.58333 8.58342 7.58333H12.4167C12.6709 7.58333 12.9147 7.48237 13.0944 7.30264C13.2741 7.12292 13.3751 6.87917 13.3751 6.625C13.3751 6.37083 13.2741 6.12708 13.0944 5.94736C12.9147 5.76763 12.6709 5.66667 12.4167 5.66667ZM3.79175 2.79167C3.53758 2.79167 3.29383 2.89263 3.1141 3.07236C2.93438 3.25208 2.83341 3.49583 2.83341 3.75V4.70833H3.79175V2.79167Z" fill="#141413"/>
</svg>
