<svg width="17" height="21" viewBox="0 0 17 21" fill="none" xmlns="http://www.w3.org/2000/svg">
<path fill-rule="evenodd" clip-rule="evenodd" d="M8.49992 0.916992V7.14616C8.49992 7.52741 8.65137 7.89304 8.92095 8.16263C9.19054 8.43221 9.55617 8.58366 9.93742 8.58366H16.1666V18.167C16.1666 18.6753 15.9647 19.1628 15.6052 19.5223C15.2458 19.8817 14.7583 20.0837 14.2499 20.0837H2.74992C2.24159 20.0837 1.75408 19.8817 1.39463 19.5223C1.03519 19.1628 0.833252 18.6753 0.833252 18.167V2.83366C0.833252 2.32533 1.03519 1.83782 1.39463 1.47837C1.75408 1.11893 2.24159 0.916992 2.74992 0.916992H8.49992ZM8.16834 10.2119L7.31159 11.6829L5.64696 12.0432C5.58139 12.0575 5.5207 12.0886 5.47096 12.1337C5.42121 12.1787 5.38416 12.236 5.3635 12.2998C5.34283 12.3636 5.33928 12.4318 5.35321 12.4974C5.36713 12.5631 5.39804 12.6239 5.44284 12.6738L6.5775 13.9436L6.405 15.638C6.39824 15.7047 6.40913 15.7721 6.43657 15.8333C6.46401 15.8946 6.50705 15.9475 6.56138 15.9869C6.61571 16.0263 6.67943 16.0507 6.74617 16.0578C6.8129 16.0648 6.88031 16.0542 6.94167 16.027L8.49992 15.3409L10.0582 16.027C10.1195 16.0542 10.1869 16.0648 10.2537 16.0578C10.3204 16.0507 10.3841 16.0263 10.4385 15.9869C10.4928 15.9475 10.5358 15.8946 10.5633 15.8333C10.5907 15.7721 10.6016 15.7047 10.5948 15.638L10.4223 13.9436L11.558 12.6738C11.6028 12.6238 11.6336 12.5629 11.6475 12.4972C11.6614 12.4315 11.6577 12.3633 11.637 12.2995C11.6162 12.2356 11.579 12.1784 11.5292 12.1334C11.4793 12.0884 11.4185 12.0573 11.3529 12.0432L9.68825 11.6829L8.8315 10.2119C8.79781 10.1538 8.74944 10.1056 8.69125 10.072C8.63305 10.0385 8.56707 10.0209 8.49992 10.0209C8.43276 10.0209 8.36679 10.0385 8.30859 10.072C8.2504 10.1056 8.20203 10.1538 8.16834 10.2119ZM10.4166 0.958201C10.7797 1.03521 11.1126 1.21598 11.3749 1.47858L15.605 5.70866C15.8676 5.97098 16.0484 6.3039 16.1254 6.66699H10.4166V0.958201Z" fill="#141413"/>
</svg>
