<svg width="85" height="17" viewBox="0 0 85 17" fill="none" xmlns="http://www.w3.org/2000/svg">
<path d="M13.8386 14.713C13.2006 15.219 12.3976 15.626 11.4296 15.934C10.4836 16.242 9.54863 16.396 8.62463 16.396C6.97463 16.396 5.53363 16.099 4.30163 15.505C3.09163 14.889 2.14563 14.02 1.46363 12.898C0.803633 11.754 0.473633 10.379 0.473633 8.77299C0.473633 7.16699 0.836633 5.80299 1.56263 4.68099C2.28863 3.53699 3.23463 2.66799 4.40063 2.07399C5.58863 1.47999 6.83163 1.18299 8.12963 1.18299C9.42763 1.18299 10.5496 1.35899 11.4956 1.71099C12.4636 2.06299 13.2886 2.52499 13.9706 3.09699L11.7266 6.06699C11.4186 5.82499 10.9896 5.58299 10.4396 5.34099C9.91163 5.07699 9.28463 4.94499 8.55863 4.94499C7.92063 4.94499 7.33763 5.10999 6.80963 5.43999C6.28163 5.76999 5.86363 6.22099 5.55563 6.79299C5.24763 7.36499 5.09363 8.02499 5.09363 8.77299C5.09363 9.47699 5.25863 10.126 5.58863 10.72C5.91863 11.314 6.36963 11.787 6.94163 12.139C7.53563 12.469 8.22863 12.634 9.02063 12.634C9.52663 12.634 9.98863 12.568 10.4066 12.436C10.8466 12.282 11.2206 12.073 11.5286 11.809L13.8386 14.713Z" fill="#141413"/>
<path d="M24.0189 16.297L15.3729 1.57899H20.8509L25.7679 11.545L22.9299 11.446L27.1869 1.57899H32.3349L24.1509 16.297H24.0189Z" fill="#141413"/>
<path d="M41.6584 16.396C39.8984 16.396 38.4024 16.066 37.1704 15.406C35.9604 14.746 35.0364 13.833 34.3984 12.667C33.7604 11.501 33.4414 10.159 33.4414 8.64099C33.4414 7.18899 33.8154 5.87999 34.5634 4.71399C35.3114 3.54799 36.3124 2.62399 37.5664 1.94199C38.8204 1.23799 40.2174 0.885986 41.7574 0.885986C43.8254 0.885986 45.5194 1.49099 46.8394 2.70099C48.1814 3.88899 49.0504 5.61599 49.4464 7.88199L38.2264 11.446L37.2034 8.93799L45.3214 6.19899L44.3644 6.62799C44.1884 6.05599 43.8694 5.56099 43.4074 5.14299C42.9674 4.70299 42.2964 4.48299 41.3944 4.48299C40.7124 4.48299 40.1074 4.64799 39.5794 4.97799C39.0734 5.28599 38.6774 5.73699 38.3914 6.33099C38.1274 6.90299 37.9954 7.58499 37.9954 8.37699C37.9954 9.27899 38.1604 10.038 38.4904 10.654C38.8204 11.248 39.2714 11.699 39.8434 12.007C40.4154 12.315 41.0534 12.469 41.7574 12.469C42.2634 12.469 42.7474 12.381 43.2094 12.205C43.6934 12.029 44.1664 11.798 44.6284 11.512L46.6744 14.944C45.9044 15.384 45.0684 15.736 44.1664 16C43.2864 16.264 42.4504 16.396 41.6584 16.396Z" fill="#141413"/>
<path d="M58.7591 16.297L50.1131 1.57899H55.5911L60.5081 11.545L57.6701 11.446L61.9271 1.57899H67.0751L58.8911 16.297H58.7591Z" fill="#141413"/>
<path d="M68.1816 8.60799C68.1816 7.13399 68.5226 5.81399 69.2046 4.64799C69.9086 3.48199 70.8876 2.56899 72.1416 1.90899C73.3956 1.22699 74.8366 0.885986 76.4646 0.885986C78.1146 0.885986 79.5446 1.22699 80.7546 1.90899C81.9646 2.56899 82.8886 3.48199 83.5266 4.64799C84.1866 5.81399 84.5166 7.13399 84.5166 8.60799C84.5166 10.082 84.1866 11.413 83.5266 12.601C82.8886 13.767 81.9646 14.691 80.7546 15.373C79.5446 16.055 78.0926 16.396 76.3986 16.396C74.8146 16.396 73.3956 16.088 72.1416 15.472C70.9096 14.856 69.9416 13.965 69.2376 12.799C68.5336 11.633 68.1816 10.236 68.1816 8.60799ZM72.8346 8.64099C72.8346 9.38899 72.9886 10.071 73.2966 10.687C73.6046 11.281 74.0226 11.754 74.5506 12.106C75.0786 12.458 75.6726 12.634 76.3326 12.634C77.0586 12.634 77.6856 12.458 78.2136 12.106C78.7416 11.754 79.1486 11.281 79.4346 10.687C79.7206 10.071 79.8636 9.38899 79.8636 8.64099C79.8636 7.87099 79.7206 7.18899 79.4346 6.59499C79.1486 6.00099 78.7416 5.52799 78.2136 5.17599C77.6856 4.82399 77.0586 4.64799 76.3326 4.64799C75.6726 4.64799 75.0786 4.82399 74.5506 5.17599C74.0226 5.52799 73.6046 6.00099 73.2966 6.59499C72.9886 7.18899 72.8346 7.87099 72.8346 8.64099Z" fill="#141413"/>
</svg>
