<svg width="21" height="21" viewBox="0 0 21 21" fill="none" xmlns="http://www.w3.org/2000/svg">
<path d="M10.5001 0.916992C15.793 0.916992 20.0834 5.20745 20.0834 10.5003C20.0834 15.7932 15.793 20.0837 10.5001 20.0837C5.20721 20.0837 0.916748 15.7932 0.916748 10.5003C0.916748 5.20745 5.20721 0.916992 10.5001 0.916992ZM10.5001 14.3337C10.2459 14.3337 10.0022 14.4346 9.82244 14.6143C9.64272 14.7941 9.54175 15.0378 9.54175 15.292C9.54175 15.5462 9.64272 15.7899 9.82244 15.9696C10.0022 16.1494 10.2459 16.2503 10.5001 16.2503C10.7542 16.2503 10.998 16.1494 11.1777 15.9696C11.3574 15.7899 11.4584 15.5462 11.4584 15.292C11.4584 15.0378 11.3574 14.7941 11.1777 14.6143C10.998 14.4346 10.7542 14.3337 10.5001 14.3337ZM10.5001 5.22949C9.57873 5.22949 8.69512 5.5955 8.04362 6.24699C7.39213 6.89848 7.02612 7.7821 7.02612 8.70345C7.02612 8.95762 7.12709 9.20137 7.30681 9.38109C7.48653 9.56082 7.73029 9.66178 7.98446 9.66178C8.23862 9.66178 8.48238 9.56082 8.6621 9.38109C8.84182 9.20137 8.94279 8.95762 8.94279 8.70345C8.94311 8.42078 9.02036 8.14352 9.16626 7.90141C9.31216 7.6593 9.52121 7.46147 9.77099 7.32912C10.0208 7.19678 10.3019 7.13492 10.5841 7.15017C10.8664 7.16543 11.1392 7.25722 11.3732 7.41571C11.6073 7.5742 11.7938 7.79341 11.9128 8.04984C12.0317 8.30626 12.0786 8.59023 12.0485 8.87129C12.0183 9.15235 11.9123 9.41991 11.7416 9.64527C11.571 9.87063 11.3422 10.0453 11.0799 10.1505C10.432 10.4093 9.54175 11.0725 9.54175 12.1774V12.417C9.54175 12.6712 9.64272 12.9149 9.82244 13.0946C10.0022 13.2744 10.2459 13.3753 10.5001 13.3753C10.7542 13.3753 10.998 13.2744 11.1777 13.0946C11.3574 12.9149 11.4584 12.6712 11.4584 12.417C11.4584 12.1832 11.5063 12.0662 11.7085 11.9666L11.7919 11.9282C12.5402 11.6272 13.1605 11.0753 13.5464 10.367C13.9323 9.6588 14.0598 8.83837 13.9071 8.0464C13.7543 7.25444 13.3309 6.54026 12.7093 6.02632C12.0877 5.51237 11.3066 5.23067 10.5001 5.22949Z" fill="#141413"/>
</svg>
