<svg width="1115" height="1002" viewBox="0 0 1115 1002" fill="none" xmlns="http://www.w3.org/2000/svg">
<path opacity="0.03" d="M1114.88 650.51C1114.88 650.51 831.242 598.996 614.798 545.597C698.429 700.643 788.31 901.021 788.31 901.021C788.31 901.021 659.693 723.522 567.017 573.805C510.773 764.906 423.339 1002 423.339 1002C423.339 1002 466.253 752.464 513.149 558.761C358.033 642.08 157.909 731.485 157.909 731.485C157.909 731.485 335.393 603.287 485.198 510.859C271.136 448.875 0.197655 351.833 0.197655 351.833C0.197655 351.833 282.888 403.175 499.194 456.479C415.782 301.632 326.45 102.478 326.45 102.478C326.45 102.478 455.051 279.955 547.725 429.666C603.956 238.37 691.735 0.338656 691.735 0.338656C691.735 0.338656 648.821 249.877 601.926 443.579C757.041 360.261 957.163 270.857 957.163 270.857C957.163 270.857 779.679 399.055 629.874 491.483C843.936 553.467 1114.88 650.51 1114.88 650.51Z" fill="#141413"/>
</svg>
